<svg width="30" height="30" viewBox="0 0 30 30" fill="none" xmlns="http://www.w3.org/2000/svg">
<path d="M15 2.59375C12.613 5.01075 12.598 8.93003 15 11.332L18.668 15L16.4141 17.2539C18.1511 18.9919 18.9316 21.3506 18.7656 23.6406L23.0371 19.3691L26.7129 15.6934C27.0969 15.3104 27.0959 14.6896 26.7129 14.3066L19.3691 6.96289L15 2.59375ZM11.2344 6.35938L6.96289 10.6309L6.83985 10.7559L3.28907 14.3047C2.90607 14.6887 2.90607 15.3094 3.28907 15.6934L13.9668 26.3711L15 27.4062C17.387 24.9893 17.402 21.07 15 18.668L11.332 15L13.5859 12.7461C11.8489 11.0081 11.0684 8.64937 11.2344 6.35938Z" fill="white"/>
</svg>
